<svg id="illustration" xmlns="http://www.w3.org/2000/svg" viewBox="0 0 350 350"><defs><style>.cls-1{fill:none;}.cls-2{fill:#ececeb;}.cls-3{clip-path:url(#clip-path);}.cls-4{fill:#734d60;}.cls-10,.cls-11,.cls-12,.cls-13,.cls-14,.cls-15,.cls-16,.cls-4,.cls-5,.cls-6,.cls-7,.cls-8,.cls-9{fill-rule:evenodd;}.cls-5{fill:#96637c;}.cls-6{fill:#b3889d;}.cls-17,.cls-7{fill:#594165;}.cls-8{fill:#9075a0;}.cls-9{fill:#c09c84;}.cls-10,.cls-18{fill:#a77e62;}.cls-11{fill:#c9ad9b;}.cls-12{fill:#835940;}.cls-13{fill:#474747;}.cls-14{fill:#858686;}.cls-15{fill:#6f7173;}.cls-16{fill:#d1a1b8;}</style><clipPath id="clip-path"><circle class="cls-1" cx="175" cy="175" r="175"/></clipPath></defs><circle class="cls-2" cx="175" cy="175" r="175"/><g class="cls-3"><path class="cls-4" d="M219.27,368.75l4.86-9.69L146.8,282.22l26.41,83.51Q196.27,366.87,219.27,368.75Z"/><path class="cls-5" d="M-8.93,356.67a229,229,0,0,1,24.24,4.87l8,2,17.62-30.39,18.45-51.26L-16.89,334.4A104.53,104.53,0,0,1-8.93,356.67Z"/><path class="cls-6" d="M37.35,366.73C54.43,368,72.2,365,89.2,364.25c18.82-.79,37.77-.19,56.6.38q16.57.51,33.13,1.41L173,339,153.9,314.65l-7.1-32.43L71.36,255.11l-3,21-9,5.78L49.24,314.3,34.09,338.42,22.88,363.47C27.68,364.68,32.49,365.83,37.35,366.73Z"/><path class="cls-7" d="M103.44,363.9c6.67-.07,13.34,0,20,.13l11.77-28.36L141,300.93l-81.64-19L85.7,336.45Z"/><polygon class="cls-8" points="71.36 255.11 59.37 281.93 84.7 327.33 104.87 302.11 132.44 328.6 141.01 300.93 146.8 282.22 105.66 290.76 71.36 255.11"/><polygon class="cls-9" points="229.31 301.28 146.85 278.67 104.87 302.11 91.77 269.89 71.36 255.11 85.98 235.42 85.19 219.84 93.57 198.47 82.6 193.67 81.73 156.63 104.21 153.76 116.89 187.06 133.65 184.82 135.42 89.78 171.53 79.99 252.83 120.37 284.19 118.7 257.06 227.77 229.31 301.28"/><polygon class="cls-10" points="263.46 171.09 224.71 181.4 195.77 221.35 195.17 166.51 175.66 137.74 208.9 153.19 232.35 156.38 246.62 154.46 263.46 171.09"/><polygon class="cls-4" points="244.33 140.54 263.46 171.09 232.35 156.38 244.33 140.54"/><polygon class="cls-4" points="208.9 153.19 175.66 137.74 195.17 166.51 208.9 153.19"/><polygon class="cls-11" points="232.35 156.38 211.01 226.21 195.77 221.35 208.9 153.19 232.35 156.38"/><polygon class="cls-12" points="211.01 226.21 200.57 234.24 195.77 221.35 211.01 226.21"/><polygon class="cls-12" points="209.13 257.52 156.46 231.45 155.31 236.78 204.81 260.3 209.13 257.52"/><polygon class="cls-12" points="94.44 163.94 105.88 185.12 91.03 177.78 94.44 163.94"/><polygon class="cls-12" points="91.26 197.46 106.31 203.64 85.19 219.84 91.26 197.46"/><polygon class="cls-12" points="229.31 301.28 132.45 265.05 112.22 253.59 104.87 302.11 146.8 282.22 229.31 301.28"/><polygon class="cls-10" points="171.53 79.99 175.66 137.74 132.45 265.05 116.17 258.62 104.87 302.11 71.36 255.11 85.19 219.84 91.26 197.46 106.31 203.64 116.89 187.06 133.65 184.82 135.42 89.78 171.53 79.99"/><polygon class="cls-13" points="308.43 116.21 284.19 118.7 252.06 123.92 261.7 86.43 283.33 56.38 308.43 116.21"/><polygon class="cls-14" points="283.33 56.38 142.93 40.4 154.41 65.87 172.55 83.21 252.06 123.92 283.33 56.38"/><polygon class="cls-15" points="172.55 83.21 138.6 91.61 122.89 82.29 113.67 68.09 142.93 40.4 172.55 83.21"/><polygon class="cls-13" points="138.6 91.61 136.1 188.06 115.78 189.54 103.46 155.89 83.13 158.08 82.29 180.42 48.98 132.29 113.67 68.09 138.6 91.61"/><polygon class="cls-12" points="106.31 203.64 85.19 219.84 91.26 197.46 106.31 203.64"/><path class="cls-16" d="M89.2,364.25c5.29-.22,10.6-.32,15.91-.36l-45.74-82L34.09,338.42,82.3,364.65C84.61,364.49,86.91,364.35,89.2,364.25Z"/><path class="cls-6" d="M139.71,364.45,173,339,146.8,282.22,121.48,364Q130.61,364.17,139.71,364.45Z"/><path class="cls-5" d="M145.8,364.63q16.57.51,33.13,1.41L173,339l-33.31,25.42Z"/></g><path class="cls-17" d="M210.49,161l-52.2-14.48-9.46,39.68,51,14.08Zm-46-3.88L200.21,167l-5.67,23L159,180.17Z"/><path class="cls-17" d="M277.32,179.63l-47.9-13.35-12,39,50.14,13.89Zm-41.65-2.76L267,185.64l-5.67,23-32.36-9Z"/><polygon class="cls-17" points="251.87 181.18 277.32 179.63 210.49 161 201.71 167.49 251.87 181.18"/><polygon class="cls-18" points="241.28 211.87 215.56 211.32 217.41 205.26 241.28 211.87"/><polygon class="cls-18" points="155.92 188.16 198.09 209.3 199.18 200.1 155.92 188.16"/><polygon class="cls-18" points="164.54 157.12 197.03 179.88 200.21 167.01 164.54 157.12"/><polygon class="cls-18" points="251.74 181.36 232.72 189.23 235.45 176.7 251.74 181.36"/><polygon class="cls-17" points="103.46 155.89 83.13 158.08 84.55 149.93 158.29 146.52 153.78 165.41 103.46 155.89"/><circle cx="184.55" cy="173.36" r="6.28"/><circle cx="239.55" cy="187.46" r="6.28"/></svg>