<svg xmlns="http://www.w3.org/2000/svg" viewBox="0 0 350 350"><defs><style>.a,.e{fill:#1c7678;}.b{fill:#4f5253;}.c,.s,.x{fill:#2b2b2b;}.d,.t{fill:#369496;}.d,.e,.f,.j,.o,.p,.q,.w,.x{fill-rule:evenodd;}.f,.u{fill:#50a9aa;}.g{fill:#6f7173;}.h,.w{fill:#72cbcc;}.i{fill:#b48c71;}.j,.y,.z{fill:#ececeb;}.k{fill:#83624d;}.l{fill:#d0ab92;}.m{fill:#d8bca9;}.n{fill:#754f40;}.o{fill:#dddddc;}.p{fill:#cececd;}.q{fill:#c4c4c4;}.r{fill:#8ce0dc;}.s,.x,.y{opacity:0.2;}.s,.x,.y,.z{isolation:isolate;}.v{fill:#474747;}.z{opacity:0.5;}</style></defs><title>mindfinder</title><polygon class="a" points="39.38 116.99 78.1 147.02 81.62 131.99 39.38 116.99"/><polygon class="b" points="79.06 117.62 66.26 284.47 249.55 333.84 269.79 152.82 79.06 117.62"/><polygon class="c" points="92.31 147.5 79.06 261.11 101.24 212.4 92.31 147.5"/><polygon class="d" points="54.31 291.32 12.79 378.63 60.71 399.82 54.31 291.32"/><polygon class="e" points="227.63 297.48 263.32 354.94 241.59 403.79 208.66 355.13 227.63 297.48"/><polygon class="d" points="146.6 460.68 148.59 430.82 58.15 292.03 44.08 325.02 61.85 449.3 146.6 460.68"/><polygon class="f" points="218.75 443.8 227.63 297.48 183.36 331.93 148.59 430.82 146.6 460.68 218.75 443.8"/><circle class="g" cx="68.39" cy="325.02" r="7.68"/><circle class="g" cx="202.34" cy="321.89" r="7.68"/><polygon class="h" points="83.18 328.67 30.85 282.36 144.75 171.87 262.07 301.7 183.36 331.93 149.02 194.51 104.86 319.26 83.18 328.67"/><polygon class="i" points="147.74 117.41 134.11 260.99 196.09 272.98 183.36 331.93 150.97 355.67 119.47 327.21 106.94 294.19 93.69 182.53 92.31 147.5 147.74 117.41"/><polygon class="j" points="151.72 308.24 104.55 273.72 102.31 317.13 116.81 338.89 151.72 308.24"/><polygon class="j" points="151.72 308.24 183.36 331.93 183.36 331.93 196.66 271.55 151.72 308.24"/><polygon class="k" points="200.09 268.82 108.92 258.26 151.72 308.24 200.09 268.82"/><polygon class="l" points="261.5 150.12 241.8 273.2 133.87 262.2 147.45 118.55 261.5 150.12"/><polygon class="i" points="250.5 177.48 229.7 189.78 215.67 218.44 204.48 221.04 194.73 216.5 175.93 181.9 149.09 164.52 165 158.4 198.99 177.78 204.28 183.35 208.76 188.37 212.73 184.03 220.93 178.31 240.45 168.77 250.5 177.48"/><polygon class="m" points="212.73 184.03 215.67 218.44 194.73 216.5 204.28 183.35 212.73 184.03"/><polygon class="k" points="203.89 225.36 215.67 218.44 194.73 216.5 203.89 225.36"/><polygon class="n" points="250.5 177.48 241.95 166.04 219.46 171.02 220.93 178.31 241 173 250.5 177.48"/><polygon class="n" points="202.54 169.95 198.99 177.78 163.63 161.87 149.09 164.52 164.21 154.37 202.54 169.95"/><path class="c" d="M229.33,184.11a7.39,7.39,0,1,0,6.23,8.39l0-.2a7.25,7.25,0,0,0-6.18-8.18Z"/><path class="c" d="M177.06,176.53a7.51,7.51,0,1,0,6.2,8.62l0-.19a7.41,7.41,0,0,0-6.21-8.43Z"/><polygon class="i" points="221.12 245.58 196.61 255.65 168.79 238.41 198.56 244.92 221.12 245.58"/><polygon class="k" points="198.79 241.53 194.41 238.72 168.79 238.41 198.17 247.8 221.12 245.58 204.7 240.14 198.79 241.53"/><polygon class="o" points="151.72 308.24 148.59 430.82 179.73 362.24 151.72 308.24"/><polygon class="p" points="151.72 308.24 148.59 430.82 111.9 366.4 151.72 308.24"/><polygon class="b" points="136.18 136.9 127.31 148.26 127.31 170.63 114.52 170.63 114.52 149.17 92.31 147.5 97.86 118.28 129.59 116.3 136.18 136.9"/><polygon class="q" points="151.72 308.24 183.36 331.93 175.57 367.36 151.47 309.98 113.08 367.89 109.56 343.37 151.72 308.24"/><polygon class="k" points="93.69 182.53 114.25 182.53 96.55 207.07 93.69 182.53"/><polygon class="k" points="106.76 173.82 106.76 156.93 96.26 156.93 106.76 173.82"/><polygon class="r" points="89.3 325.88 41.94 336.97 148.59 430.82 89.3 325.88"/><polygon class="s" points="104.55 273.72 101.45 324.38 90.01 327.3 148.59 430.82 110.84 344.43 104.55 273.72"/><polygon class="s" points="196.66 271.55 183.36 331.93 148.59 430.82 196.66 271.55"/><polygon class="r" points="183.36 331.93 232.49 341.23 148.59 430.82 183.36 331.93"/><polygon class="i" points="130.44 322.33 141.78 310.15 151.72 308.24 157.92 297.35 132.1 285.36 120.89 317.68 130.44 322.33"/><polygon class="l" points="120.89 317.68 136.16 293.23 137.68 281.18 134.11 260.99 102.89 302.12 120.89 317.68"/><polygon class="i" points="158.79 255.92 167.45 275.92 153.94 283.89 158.79 255.92"/><polygon class="m" points="134.11 260.99 158.79 255.92 157.92 297.35 136.16 293.23 134.11 260.99"/><polygon class="f" points="12.79 378.63 102.89 302.12 146.59 333.37 57.41 418.87 12.79 378.63"/><polygon class="s" points="158.25 109.75 81.94 138.71 137.22 192.21 271.05 171.02 282.19 137.2 158.25 109.75"/><polygon class="t" points="273.66 64.08 203.72 35.48 119.38 32.53 183.49 62.8 273.66 64.08"/><polygon class="h" points="183.49 62.8 180.34 106.44 91.13 79.07 119.38 32.53 183.49 62.8"/><polygon class="u" points="183.49 62.8 180.34 106.44 279.27 109.89 273.66 64.08 183.49 62.8"/><polygon class="v" points="279.27 109.89 282.19 137.2 169.58 135.67 180.34 106.44 279.27 109.89"/><polygon class="g" points="180.34 106.44 91.13 79.07 79.42 100.89 169.58 135.67 180.34 106.44"/><polygon class="t" points="282.19 137.2 312.19 171.65 153.78 171.42 169.58 135.67 282.19 137.2"/><polygon class="h" points="169.58 135.67 79.42 100.89 39.38 116.99 153.78 171.42 169.58 135.67"/><polygon class="k" points="275.69 301.34 292.63 308.35 295.84 324.34 285.59 326.55 285.59 326.55 284.68 336.39 263.97 327.83 250.82 289.62 275.69 301.34"/><polygon class="w" points="241.59 403.79 263.97 327.83 303.2 344.05 315.98 349.63 293.04 386.19 241.59 403.79"/><polyline class="x" points="263.97 327.83 303.2 344.05 293.92 365.41"/><circle class="y" cx="269.96" cy="216.88" r="37.33" transform="translate(12.64 448.61) rotate(-80.78)"/><polygon class="b" points="303.2 344.05 285.55 353.07 278.96 319.6 267.15 259.63 265.82 251.2 282.97 248.66 296.64 312.42 299.24 320.39 299.24 325.09 303.2 344.05"/><polygon class="i" points="299.24 325.09 306.17 307.33 279.14 301.36 278.96 319.6 296.64 312.42 299.24 325.09"/><polygon class="l" points="278.96 319.6 250.82 289.62 267.12 259.63 281.05 288.29 282.56 304.77 278.96 319.6"/><polygon class="z" points="247.99 191.07 269.96 254.21 278.7 252.93 253.11 184.24 247.99 191.07"/><polygon class="z" points="245 194.48 265.48 253.78 262.49 253.78 241.59 197.47 245 194.48"/><polygon class="m" points="267.12 259.63 294.99 261.35 306.17 307.33 282.56 304.77 267.12 259.63"/><path class="v" d="M272.31,175.71a41,41,0,1,0,40.95,41v0A41,41,0,0,0,272.31,175.71Zm0,73.72a32.77,32.77,0,1,1,32.76-32.78v0a32.78,32.78,0,0,1-32.76,32.76Z"/></svg>